<svg width="600" height="600" xmlns="http://www.w3.org/2000/svg">
 <g id="Layer_1">
  <title>Layer 1</title>
  <g stroke="null">
   <g stroke="null" clip-rule="evenodd" fill-rule="evenodd">
    <path stroke="#ffffff" d="m-25.37801,-25l648.75601,0l0,648.75601l-648.75601,0l0,-648.75601z" fill="#fff"/>
    <path stroke="#ffffff" d="m584.20479,525.1448l-285.20816,-472.24602l-285.20143,472.24602l570.40959,0z"/>
    <path stroke="#ffffff" d="m80.12276,462.80221l437.75447,0l-218.8806,-362.14772l-218.87387,362.14772zm28.51745,18.23528l12.60449,0l10.28217,19.73301l0,-19.73301l8.62289,0l0,29.85026l-11.94145,0l-10.94521,-20.72925l0,20.72925l-8.62289,0l0,-29.85026zm133.98119,29.85026l0,-29.85026l-8.62289,0l0,29.85026l8.62289,0zm104.13093,-29.85026l0,29.85026l8.62625,0l0,-13.76565l8.62289,13.76565l8.94936,0l-10.27544,-16.08798l10.11725,-13.76229l-8.79117,0l-8.62289,11.77317l0,-11.77317l-8.62625,0zm123.36919,0l22.21689,0l0,6.6304l-13.594,0l0,5.31105l12.27465,0l0,6.62703l-12.27465,0l0,4.97785l13.594,0l0,6.30393l-22.21689,0l0,-29.85026z" fill="#fff"/>
    <path stroke="#ffffff" d="m244.93027,373.75628a24.38775,24.38775 0 1 0 0.07068,22.74867l38.77942,0.03366c-5.32451,28.51745 -30.33829,50.09822 -60.39385,50.09822c-33.93284,0 -61.44058,-27.51111 -61.44058,-61.43722c0,-33.93284 27.50774,-61.44395 61.44058,-61.44395c30.07576,0 55.10636,21.44951 60.40395,49.99389l-38.8602,0.00673zm138.39361,20.93456a24.40122,24.40122 0 0 1 -46.8638,-9.49123a24.38775,24.38775 0 0 1 24.38775,-24.38775c6.15247,0 11.77317,2.2752 16.05768,6.02794l25.18206,-27.188a61.24874,61.24874 0 0 0 -41.24311,-15.89613c-33.93284,0 -61.43722,27.51111 -61.43722,61.44395c0,33.92611 27.50438,61.43722 61.43722,61.43722s61.44395,-27.51111 61.44395,-61.43722l0,-11.11686l-49.00774,0l0,20.56097l10.0432,0.04712zm-46.87053,-84.12867a61.14104,61.14104 0 0 1 -44.58523,19.22143c-33.86552,0 -61.32278,-27.45726 -61.32278,-61.31942c0,-33.86889 27.45726,-61.32278 61.32278,-61.32278c9.22198,0 17.97276,2.03624 25.81481,5.68464l0,-6.04477l35.37335,0l0,103.79773l-16.60292,-0.01683z"/>
    <path stroke="#ffffff" fill="#fff" d="m291.86811,292.96637c13.53005,0 24.50892,-10.97213 24.50892,-24.50219a24.50219,24.50219 0 1 0 -24.50892,24.50219z"/>
   </g>
   <rect stroke="#000" id="svg_1" height="42" width="439" y="475" x="81" fill="#000000"/>
  </g>
  <text transform="matrix(1 0 0 1 0 0)" xml:space="preserve" text-anchor="start" font-family="'Work Sans'" font-size="24" id="svg_8" y="504" x="191.27344" stroke-width="0" stroke="#ffffff" fill="#ffffff">M          O          E</text>
 </g>

</svg>
